<svg xmlns="http://www.w3.org/2000/svg" xmlns:xlink="http://www.w3.org/1999/xlink" viewBox="0 0 340.31 311.29"><defs><style>.cls-1{isolation:isolate;}.cls-2{fill:url(#linear-gradient);}.cls-3{fill:url(#linear-gradient-2);}.cls-11,.cls-31,.cls-39,.cls-4,.cls-42,.cls-5,.cls-54,.cls-55,.cls-56,.cls-6,.cls-7,.cls-8,.cls-9{opacity:0.8;}.cls-11,.cls-15,.cls-17,.cls-19,.cls-22,.cls-23,.cls-26,.cls-31,.cls-39,.cls-4,.cls-42,.cls-5,.cls-54,.cls-55,.cls-56,.cls-6,.cls-7,.cls-8,.cls-9{mix-blend-mode:multiply;}.cls-4{fill:url(#linear-gradient-3);}.cls-5{fill:url(#linear-gradient-4);}.cls-6{fill:url(#linear-gradient-5);}.cls-7{fill:url(#linear-gradient-6);}.cls-8{fill:url(#linear-gradient-7);}.cls-9{fill:url(#linear-gradient-8);}.cls-10{fill:#cce0f0;}.cls-11{fill:url(#linear-gradient-9);}.cls-12,.cls-20,.cls-30{fill:#fff;}.cls-13{fill:url(#linear-gradient-10);}.cls-14{fill:#809297;}.cls-15{fill:url(#linear-gradient-11);}.cls-16{fill:#8b9fa3;}.cls-17{fill:url(#linear-gradient-12);}.cls-18{fill:#92a7ad;}.cls-19{fill:url(#linear-gradient-13);}.cls-20{opacity:0.1;}.cls-21{fill:#fcc872;}.cls-22{fill:url(#linear-gradient-14);}.cls-23{fill:url(#linear-gradient-15);}.cls-24,.cls-25{mix-blend-mode:overlay;}.cls-24{fill:url(#linear-gradient-16);}.cls-25{fill:url(#linear-gradient-17);}.cls-26{fill:url(#linear-gradient-18);}.cls-27,.cls-28,.cls-36,.cls-37,.cls-45,.cls-46,.cls-59{opacity:0.7;}.cls-27{fill:url(#linear-gradient-19);}.cls-28{fill:url(#linear-gradient-20);}.cls-29{fill:url(#linear-gradient-21);}.cls-30{mix-blend-mode:soft-light;}.cls-31{fill:url(#linear-gradient-22);}.cls-32{fill:url(#linear-gradient-23);}.cls-33{fill:#f9b215;}.cls-34{fill:#f59e19;}.cls-35{fill:#fec92a;}.cls-36{fill:url(#linear-gradient-24);}.cls-37{fill:url(#linear-gradient-25);}.cls-38{fill:url(#linear-gradient-26);}.cls-39{fill:url(#linear-gradient-27);}.cls-40{fill:url(#linear-gradient-28);}.cls-41{fill:#d3302f;}.cls-42{fill:url(#linear-gradient-29);}.cls-43{fill:#ea5351;}.cls-44,.cls-53,.cls-61,.cls-63{fill:none;stroke:#fff;}.cls-44,.cls-53{stroke-miterlimit:10;}.cls-44,.cls-61{stroke-width:1.04px;}.cls-45{fill:url(#linear-gradient-30);}.cls-46{fill:url(#linear-gradient-31);}.cls-47{fill:url(#linear-gradient-32);}.cls-48{fill:#26284c;}.cls-49{fill:#1a1b37;}.cls-50{fill:#f5f5f5;}.cls-51{fill:#7c92ba;}.cls-52{fill:#6b7fa3;}.cls-53{stroke-width:0.75px;}.cls-54{fill:url(#linear-gradient-33);}.cls-55{fill:url(#linear-gradient-34);}.cls-56{fill:url(#linear-gradient-35);}.cls-57{fill:url(#linear-gradient-36);}.cls-58{fill:url(#linear-gradient-37);}.cls-59{fill:url(#linear-gradient-38);}.cls-60{fill:url(#linear-gradient-39);}.cls-61,.cls-63{stroke-linecap:round;stroke-linejoin:round;}.cls-62{fill:#ffee5a;}.cls-63{stroke-width:0.52px;}.cls-64{fill:url(#linear-gradient-40);}</style><linearGradient id="linear-gradient" x1="421.97" y1="434.11" x2="421.97" y2="124.56" gradientUnits="userSpaceOnUse"><stop offset="0" stop-color="#8b4192"/><stop offset="1" stop-color="#2f2142"/></linearGradient><linearGradient id="linear-gradient-2" x1="268.99" y1="431.05" x2="252.09" y2="324.62" xlink:href="#linear-gradient"/><linearGradient id="linear-gradient-3" x1="80.82" y1="304.69" x2="84.04" y2="260.46" gradientUnits="userSpaceOnUse"><stop offset="0" stop-color="#fff" stop-opacity="0"/><stop offset="1" stop-color="#653089"/></linearGradient><linearGradient id="linear-gradient-4" x1="184.58" y1="305.75" x2="187.8" y2="261.51" xlink:href="#linear-gradient-3"/><linearGradient id="linear-gradient-5" x1="192.64" y1="257.86" x2="48.52" y2="256.1" xlink:href="#linear-gradient-3"/><linearGradient id="linear-gradient-6" x1="150.9" y1="113.51" x2="72.99" y2="200.8" xlink:href="#linear-gradient-3"/><linearGradient id="linear-gradient-7" x1="641.38" y1="373.15" x2="475.85" y2="373.15" xlink:href="#linear-gradient-3"/><linearGradient id="linear-gradient-8" x1="617.17" y1="323.53" x2="440.76" y2="323.53" xlink:href="#linear-gradient-3"/><linearGradient id="linear-gradient-9" x1="413.65" y1="337.18" x2="492.97" y2="337.18" xlink:href="#linear-gradient-3"/><linearGradient id="linear-gradient-10" x1="169.71" y1="114.9" x2="169.71" y2="219.35" gradientUnits="userSpaceOnUse"><stop offset="0" stop-color="#4bbbba"/><stop offset="1" stop-color="#49baba" stop-opacity="0"/></linearGradient><linearGradient id="linear-gradient-11" x1="407.88" y1="282.89" x2="434.39" y2="282.89" gradientUnits="userSpaceOnUse"><stop offset="0" stop-color="#fff" stop-opacity="0"/><stop offset="1" stop-color="#92a7ad"/></linearGradient><linearGradient id="linear-gradient-12" x1="414.13" y1="270.74" x2="439.19" y2="270.74" xlink:href="#linear-gradient-11"/><linearGradient id="linear-gradient-13" x1="410.17" y1="263.23" x2="440.32" y2="263.23" gradientTransform="translate(670.7 -167.17) rotate(88.07)" xlink:href="#linear-gradient-11"/><linearGradient id="linear-gradient-14" x1="412.41" y1="207.41" x2="446.53" y2="247.79" gradientUnits="userSpaceOnUse"><stop offset="0" stop-color="#fff" stop-opacity="0"/><stop offset="1" stop-color="#fcc872"/></linearGradient><linearGradient id="linear-gradient-15" x1="485.52" y1="229.48" x2="485.52" y2="249.17" gradientTransform="translate(-70.76 -13.81) rotate(-1.56)" xlink:href="#linear-gradient-14"/><linearGradient id="linear-gradient-16" x1="498.58" y1="245.52" x2="468.43" y2="194.86" gradientTransform="translate(-64.84 -27.14)" gradientUnits="userSpaceOnUse"><stop offset="0" stop-color="#fff" stop-opacity="0"/><stop offset="1" stop-color="#fff"/></linearGradient><linearGradient id="linear-gradient-17" x1="400.7" y1="232.7" x2="368.11" y2="216.92" gradientTransform="matrix(1, 0, 0, 1, 0, 0)" xlink:href="#linear-gradient-16"/><linearGradient id="linear-gradient-18" x1="416.75" y1="266.96" x2="444.52" y2="252.01" xlink:href="#linear-gradient-14"/><linearGradient id="linear-gradient-19" x1="335.93" y1="240.98" x2="429.47" y2="240.98" xlink:href="#linear-gradient-10"/><linearGradient id="linear-gradient-20" x1="495.86" y1="240.98" x2="430.21" y2="240.98" xlink:href="#linear-gradient-10"/><linearGradient id="linear-gradient-21" x1="169.71" y1="-18.48" x2="169.71" y2="85.97" xlink:href="#linear-gradient-10"/><linearGradient id="linear-gradient-22" x1="514.96" y1="380.07" x2="568.59" y2="380.07" xlink:href="#linear-gradient-3"/><linearGradient id="linear-gradient-23" x1="268.47" y1="188.14" x2="268.47" y2="258.75" xlink:href="#linear-gradient-10"/><linearGradient id="linear-gradient-24" x1="462.41" y1="322.31" x2="525.66" y2="322.31" xlink:href="#linear-gradient-10"/><linearGradient id="linear-gradient-25" x1="570.55" y1="322.31" x2="526.16" y2="322.31" xlink:href="#linear-gradient-10"/><linearGradient id="linear-gradient-26" x1="268.47" y1="112.51" x2="268.47" y2="183.13" xlink:href="#linear-gradient-10"/><linearGradient id="linear-gradient-27" x1="317.33" y1="280.34" x2="370.96" y2="280.34" xlink:href="#linear-gradient-3"/><linearGradient id="linear-gradient-28" x1="70.84" y1="88.4" x2="70.84" y2="159.02" xlink:href="#linear-gradient-10"/><linearGradient id="linear-gradient-29" x1="320.2" y1="197.37" x2="341.09" y2="237.6" xlink:href="#linear-gradient-3"/><linearGradient id="linear-gradient-30" x1="264.78" y1="222.58" x2="328.03" y2="222.58" xlink:href="#linear-gradient-10"/><linearGradient id="linear-gradient-31" x1="372.92" y1="222.58" x2="328.53" y2="222.58" xlink:href="#linear-gradient-10"/><linearGradient id="linear-gradient-32" x1="70.84" y1="12.78" x2="70.84" y2="83.4" xlink:href="#linear-gradient-10"/><linearGradient id="linear-gradient-33" x1="69.07" y1="184.54" x2="106.95" y2="260.31" xlink:href="#linear-gradient-3"/><linearGradient id="linear-gradient-34" x1="94.86" y1="248.3" x2="197.81" y2="248.3" xlink:href="#linear-gradient-3"/><linearGradient id="linear-gradient-35" x1="94.86" y1="228.18" x2="197.81" y2="228.18" xlink:href="#linear-gradient-3"/><linearGradient id="linear-gradient-36" x1="358.89" y1="317.29" x2="356.24" y2="343.39" xlink:href="#linear-gradient-14"/><linearGradient id="linear-gradient-37" x1="349.96" y1="333.29" x2="343.31" y2="345.9" gradientUnits="userSpaceOnUse"><stop offset="0" stop-color="#a56baa" stop-opacity="0"/><stop offset="1" stop-color="#a56baa"/></linearGradient><linearGradient id="linear-gradient-38" x1="365.58" y1="343.1" x2="359.39" y2="354.84" xlink:href="#linear-gradient-10"/><linearGradient id="linear-gradient-39" x1="375.35" y1="342.86" x2="369.36" y2="362.32" gradientUnits="userSpaceOnUse"><stop offset="0" stop-color="#ea5351"/><stop offset="1" stop-color="#ea5351" stop-opacity="0"/></linearGradient><linearGradient id="linear-gradient-40" x1="1140.4" y1="2735.47" x2="1140.4" y2="2644.77" gradientTransform="translate(1557.35 2974.11) rotate(-177.48)" xlink:href="#linear-gradient"/></defs><title>img</title><g class="cls-1"><g id="Capa_1" data-name="Capa 1"><path class="cls-2" d="M590,358q-.74,4.25-1.71,8.44-.75,3.19-1.62,6.35a130.21,130.21,0,0,1-14.13,33.44c-6.46,10.49-14.76,19.6-25.32,25.94a76.34,76.34,0,0,1-18.1,7.74H313.51c-20.85-11.32-39.15-31.24-35.17-54.57,3.46-20.3,6.71-40.55-.41-59.31-5.18-13.61-15.37-24.8-21.11-38.19-14.21-33.22,3.66-63.3,30.16-81.75,1-.67,1.93-1.32,2.91-2l.7-.45c1.08-.69,2.15-1.41,3.2-2.14,2.28-1.59,4.48-3.26,6.64-5h0c1.62-1.32,3.21-2.67,4.78-4.07.37-.32.75-.65,1.11-1q3.24-2.91,6.37-6c1.1-1.07,2.19-2.16,3.28-3.25,8.48-8.51,16.66-17.42,25.62-25.18,8.54-7.39,17.79-13.74,28.69-17.7a102.53,102.53,0,0,1,20.88-5.18,107.27,107.27,0,0,1,79.72,20.9c1.11.85,2.22,1.73,3.32,2.63,11.73,9.59,22.52,21.82,27.29,35.94,6,17.77,14.87,34.92,31,45.49,13.33,8.71,26,14.49,36.57,27.15A93.23,93.23,0,0,1,579,280.64,97.08,97.08,0,0,1,585,293.26,103.88,103.88,0,0,1,590,311,130.64,130.64,0,0,1,590,358Z" transform="translate(-251.81 -128.6)"/><path class="cls-3" d="M254.42,394c-.33,5.89,0,12.09,3,17.2,2.47,4.29,8.28,7.57,12.3,4.68,3.05-2.2,3.27-6.72,2.25-10.34s-3-7-3.24-10.77c-.44-5.9,6.54-21-3.94-21.71C255.32,372.45,254.75,388.17,254.42,394Z" transform="translate(-251.81 -128.6)"/><ellipse class="cls-4" cx="82.16" cy="286.28" rx="20.34" ry="8.01"/><ellipse class="cls-5" cx="185.92" cy="287.34" rx="20.34" ry="8.01"/><polygon class="cls-6" points="68.67 251.01 87.06 251.01 127.93 270.04 122.59 282.09 141.73 282.09 183.31 256.3 132.4 238.49 102.15 231.67 68.67 251.01"/><rect class="cls-7" x="72.45" y="111.88" width="100.79" height="66.12"/><path class="cls-8" d="M590,340.09V358q-.74,4.25-1.71,8.44-.75,3.19-1.62,6.35a130.21,130.21,0,0,1-14.13,33.44H519.85V340.09Z" transform="translate(-251.81 -128.6)"/><path class="cls-9" d="M590,311v47q-.74,4.25-1.71,8.44h-147V280.64H579A97.08,97.08,0,0,1,585,293.26,103.88,103.88,0,0,1,590,311Z" transform="translate(-251.81 -128.6)"/><path class="cls-10" d="M474.28,345.55v-47.2H368.76v47.2h0c0,7.8,5.15,15.59,15.46,21.54,20.6,11.9,54,11.9,74.61,0C469.13,361.14,474.28,353.35,474.28,345.55Z" transform="translate(-251.81 -128.6)"/><path class="cls-11" d="M474.28,345.55v-47.2H368.76v47.2h0c0,7.8,5.15,15.59,15.46,21.54,20.6,11.9,54,11.9,74.61,0C469.13,361.14,474.28,353.35,474.28,345.55Z" transform="translate(-251.81 -128.6)"/><ellipse class="cls-12" cx="169.71" cy="169.75" rx="52.76" ry="30.46"/><ellipse class="cls-13" cx="169.71" cy="163.84" rx="52.76" ry="30.46"/><path class="cls-14" d="M434.38,283.33c-.18,5.51-6.26,9.77-13.58,9.52s-13.1-4.91-12.91-10.41,6.26-9.76,13.58-9.51S434.57,277.83,434.38,283.33Z" transform="translate(-251.81 -128.6)"/><path class="cls-15" d="M434.38,283.33c-.18,5.51-6.26,9.77-13.58,9.52s-13.1-4.91-12.91-10.41,6.26-9.76,13.58-9.51S434.57,277.83,434.38,283.33Z" transform="translate(-251.81 -128.6)"/><path class="cls-16" d="M443.17,271.47c-.23,6.71-10.09,11.82-22,11.42S399.7,276.72,399.92,270,410,258.2,422,258.6,443.39,264.76,443.17,271.47Z" transform="translate(-251.81 -128.6)"/><path class="cls-17" d="M443.17,271.47c-.23,6.71-10.09,11.82-22,11.42S399.7,276.72,399.92,270,410,258.2,422,258.6,443.39,264.76,443.17,271.47Z" transform="translate(-251.81 -128.6)"/><ellipse class="cls-18" cx="421.8" cy="263.23" rx="12.15" ry="21.63" transform="translate(-107.28 547.34) rotate(-88.07)"/><ellipse class="cls-19" cx="421.8" cy="263.23" rx="12.15" ry="21.63" transform="translate(-107.28 547.34) rotate(-88.07)"/><path class="cls-20" d="M403.43,266c-.59.3-1.45-.21-1.92-1.14s-.35-1.93.24-2.23,1.46.22,1.92,1.15S404,265.7,403.43,266Z" transform="translate(-251.81 -128.6)"/><path class="cls-20" d="M404.6,267.8a.76.76,0,0,1-1-.27.74.74,0,0,1,.4-1,.75.75,0,0,1,1,.26A.76.76,0,0,1,404.6,267.8Z" transform="translate(-251.81 -128.6)"/><path class="cls-20" d="M403.5,274.08c-.59.3-1.45-.21-1.92-1.14s-.36-1.93.24-2.23,1.46.22,1.92,1.15S404.1,273.78,403.5,274.08Z" transform="translate(-251.81 -128.6)"/><path class="cls-20" d="M404.67,275.88a.7.7,0,1,1-.62-1.24.7.7,0,1,1,.62,1.24Z" transform="translate(-251.81 -128.6)"/><path class="cls-21" d="M460.87,212.54c.14-21.8-17.39-36.3-39.12-36.43S382.31,190.24,382.17,212C382,233.4,393,236.63,398.52,247.62a10.7,10.7,0,0,1,1.1,6.48c-.05,8.3,9,13,21.55,13.07s21.67-4.5,21.72-12.79a10.77,10.77,0,0,1,1.18-6.48C449.78,237,460.74,233.9,460.87,212.54Z" transform="translate(-251.81 -128.6)"/><path class="cls-22" d="M460.87,212.54c0,1.33-.05,2.59-.14,3.8-.07.91-.16,1.79-.28,2.64a33.11,33.11,0,0,1-3.11,10.6,1.42,1.42,0,0,0-.08.18c-3.61,7.12-9.12,10.89-12.77,17.4q-.23.36-.42.75a10.65,10.65,0,0,0-1.18,6.47,7.61,7.61,0,0,1-.06,1,2.82,2.82,0,0,1-.05.43,1.46,1.46,0,0,1,0,.22c0,.14,0,.28-.07.41s-.05.28-.09.42-.1.38-.16.56v0a9.86,9.86,0,0,1-.62,1.5l0,.09c-2.15,4.1-7.21,6.74-14,7.72a42.21,42.21,0,0,1-6.62.44c-12.59-.08-21.61-4.77-21.56-13.07a10.7,10.7,0,0,0-1.11-6.49C393,236.63,382,233.4,382.17,212c.14-21.8,17.85-36.07,39.57-35.93S461,190.74,460.87,212.54Z" transform="translate(-251.81 -128.6)"/><path class="cls-23" d="M434,231.41c-.69-4.14-5.34-9.62-8.75-4.23-2.36,3.73-2.11,8.95-2.11,13.31v.27l-1.16.06a1,1,0,0,0-.31.05,1.31,1.31,0,0,0-.31-.06c-.38,0-.76,0-1.15-.07v-.25c.06-3.77.07-7.63-1.07-11.22-1.79-5.67-7-5.42-9.1-.09-2,5.08-.13,9,3.35,11.31a14.19,14.19,0,0,0,4.75,2c0,.1,0,.2,0,.29,0,2.81,0,5.62-.05,8.43,0,2.5,0,5-.05,7.5,0,1.13,0,2.25,0,3.37l0,5c.67,0,1.36.09,2.05.11l0-5.15,0-3.41c0-2.5,0-5,.05-7.51,0-2.76,0-5.53.05-8.29.38,0,.77.07,1.16.08a1.06,1.06,0,0,0,.31,0,.73.73,0,0,0,.3,0c.39,0,.78,0,1.17-.06,0,2.77,0,5.55-.05,8.32,0,2.51,0,5-.05,7.52,0,1.12,0,2.23,0,3.35,0,.26,0,.53,0,.79,0,1.45,0,2.89,0,4.35h.26l.67,0,.58,0,.55,0,0-5c0-.49,0-1,0-1.47s0-1.17,0-1.75c0-2.51,0-5,.05-7.53,0-2.83,0-5.67,0-8.5v-.27C430.6,241.46,435,237.85,434,231.41Zm-22.66,1.82c0-2.27,2.3-9.07,5.14-5.07,2.19,3.09,1.89,8.12,1.72,12.28C414.5,239.67,411.35,237.59,411.31,233.23Zm13.81,7.26c-.12-4.17-.36-9.2,1.87-12.26,2.9-4,5.13,2.86,5.08,5.13C432,237.72,428.79,239.76,425.12,240.49Z" transform="translate(-251.81 -128.6)"/><ellipse class="cls-24" cx="420.67" cy="196.42" rx="27.58" ry="15.92" transform="translate(-257.01 -117.05) rotate(-1.56)"/><path class="cls-25" d="M387.62,223.48c1.84,5.34,5.28,10.23,8.91,14.35,3.8,4.3,8.36,8.58,9.15,14.26a6.51,6.51,0,0,0,.54,2.33,1.66,1.66,0,0,0,2,.88,2.12,2.12,0,0,0,.85-.88,11.65,11.65,0,0,0,1.48-8.47c-1-4.64-4.56-8-7.55-11.42a27.75,27.75,0,0,1-6.32-12c-.58-2.74-.76-5.55-1.35-8.29a9.54,9.54,0,0,0-1.46-3.7,4.22,4.22,0,0,0-3.38-1.85,4.15,4.15,0,0,0-3.36,2.31,9,9,0,0,0-.89,4.13A24.13,24.13,0,0,0,387.62,223.48Z" transform="translate(-251.81 -128.6)"/><path class="cls-26" d="M460.87,212.54c0,1.32,0,2.58-.14,3.8-.07.91-.16,1.79-.28,2.64a35.94,35.94,0,0,1-3.11,10.6,1.42,1.42,0,0,0-.08.18c-3.61,7.12-9.12,10.89-12.77,17.4q-.23.36-.42.75a10.65,10.65,0,0,0-1.18,6.47,7.61,7.61,0,0,1-.06,1,2.82,2.82,0,0,1-.05.43,1.46,1.46,0,0,1,0,.22c0,.14,0,.28-.07.41s-.05.28-.09.42-.1.38-.16.56v0a9.86,9.86,0,0,1-.62,1.5l0,.09a7.9,7.9,0,0,1,1.66,4.95,7.55,7.55,0,0,1-1.18,3.72,7.43,7.43,0,0,1,.92,3.79c-.13,4-3.7,7.44-9.09,9.47a7.66,7.66,0,0,1,.31,2.39c-.18,5.5-6.26,9.76-13.58,9.52-.41,0-.82,0-1.23-.09,1.59-1.91,3.39-3.74,4.3-5.54,3.16-6.28,3.56-13.6,3.93-20.49,0-.13,0-.26,0-.39l1-17.42a5.15,5.15,0,0,1,.29-1.7c.68-1.58,2.7-1.94,4.38-2.34C451.83,240.56,459.3,226.92,460.87,212.54Z" transform="translate(-251.81 -128.6)"/><path class="cls-21" d="M459.24,170.74a3.52,3.52,0,1,1-3.52-3.51A3.53,3.53,0,0,1,459.24,170.74Z" transform="translate(-251.81 -128.6)"/><path class="cls-21" d="M459.24,267.89a3.52,3.52,0,1,1-3.52-3.51A3.53,3.53,0,0,1,459.24,267.89Z" transform="translate(-251.81 -128.6)"/><circle class="cls-21" cx="140.23" cy="124.1" r="3.52"/><circle class="cls-21" cx="211.28" cy="31.76" r="2.22"/><circle class="cls-21" cx="207.42" cy="119.42" r="2.22"/><circle class="cls-21" cx="145.97" cy="30.46" r="2.22"/><circle class="cls-21" cx="213.5" cy="146.8" r="2.22"/><circle class="cls-21" cx="134.42" cy="158.17" r="2.22"/><path class="cls-27" d="M474.28,292.43V159.06c0,7.79-5.15,15.59-15.45,21.54-20.61,11.89-54,11.89-74.61,0-10.31-5.95-15.46-13.75-15.46-21.54V292.44h0c0,7.79,5.15,15.59,15.46,21.53,20.6,11.9,54,11.9,74.61,0C469.13,308,474.28,300.23,474.28,292.43Z" transform="translate(-251.81 -128.6)"/><path class="cls-28" d="M474.28,292.43V159.06c0,7.79-5.15,15.59-15.45,21.54-20.61,11.89-54,11.89-74.61,0-10.31-5.95-15.46-13.75-15.46-21.54V292.44h0c0,7.79,5.15,15.59,15.46,21.53,20.6,11.9,54,11.9,74.61,0C469.13,308,474.28,300.23,474.28,292.43Z" transform="translate(-251.81 -128.6)"/><ellipse class="cls-29" cx="169.71" cy="30.46" rx="52.76" ry="30.46"/><path class="cls-30" d="M376.66,244.21h0a7.21,7.21,0,0,1-3.59-6.23V189.47a1.39,1.39,0,0,1,2.08-1.2h0a7.39,7.39,0,0,1,3.68,6.39V243A1.45,1.45,0,0,1,376.66,244.21Z" transform="translate(-251.81 -128.6)"/><path class="cls-30" d="M376.66,266h0a7.21,7.21,0,0,1-3.59-6.23v-6.89a1.39,1.39,0,0,1,2.08-1.2h0a7.37,7.37,0,0,1,3.68,6.39v6.67A1.45,1.45,0,0,1,376.66,266Z" transform="translate(-251.81 -128.6)"/><path class="cls-10" d="M556,385.73V353.82H484.61v31.92h0c0,5.27,3.49,10.54,10.45,14.56,13.93,8,36.52,8,50.45,0C552.48,396.28,556,391,556,385.73Z" transform="translate(-251.81 -128.6)"/><path class="cls-31" d="M556,385.73V353.82H484.61v31.92h0c0,5.27,3.49,10.54,10.45,14.56,13.93,8,36.52,8,50.45,0C552.48,396.28,556,391,556,385.73Z" transform="translate(-251.81 -128.6)"/><ellipse class="cls-12" cx="268.47" cy="225.22" rx="35.67" ry="20.59"/><ellipse class="cls-32" cx="268.47" cy="221.22" rx="35.67" ry="20.59"/><path class="cls-21" d="M545.89,292.44a2.38,2.38,0,1,1-2.38-2.38A2.38,2.38,0,0,1,545.89,292.44Z" transform="translate(-251.81 -128.6)"/><circle class="cls-21" cx="289.32" cy="215.02" r="2.38"/><path class="cls-21" d="M502.73,325.33a2.38,2.38,0,1,1-2.37-2.38A2.38,2.38,0,0,1,502.73,325.33Z" transform="translate(-251.81 -128.6)"/><path class="cls-21" d="M540.26,282.39a1.5,1.5,0,1,1-1.5-1.5A1.5,1.5,0,0,1,540.26,282.39Z" transform="translate(-251.81 -128.6)"/><path class="cls-21" d="M533.57,349.82a1.5,1.5,0,1,1-1.5-1.5A1.5,1.5,0,0,1,533.57,349.82Z" transform="translate(-251.81 -128.6)"/><path class="cls-21" d="M501.59,280.23a1.5,1.5,0,1,1-1.5-1.5A1.5,1.5,0,0,1,501.59,280.23Z" transform="translate(-251.81 -128.6)"/><path class="cls-21" d="M551.39,324.26a1.5,1.5,0,1,1-1.5-1.5A1.5,1.5,0,0,1,551.39,324.26Z" transform="translate(-251.81 -128.6)"/><path class="cls-21" d="M497.92,346a1.5,1.5,0,1,1-1.5-1.5A1.5,1.5,0,0,1,497.92,346Z" transform="translate(-251.81 -128.6)"/><path class="cls-33" d="M542.66,318.5c0,.11,0,.24,0,.35a21.64,21.64,0,0,1-.37,3.91,15.64,15.64,0,0,1-.54,2.07,11.14,11.14,0,0,1-4.49,6.13h0l-.18.11-.34.19-5.51,3.2L530,332.33a19.17,19.17,0,0,1-6.93-2.52c-10.83-6.24-19.59-21.44-19.59-33.94a21.94,21.94,0,0,1,.28-3.55c.11-.71.26-1.38.42-2s.32-1,.5-1.51l-1.29-2.23,5.56-3.21a6.28,6.28,0,0,1,.57-.31l.3-.18v0a11.66,11.66,0,0,1,8.08-.5,16.3,16.3,0,0,1,2,.63,22.25,22.25,0,0,1,3.21,1.54l.25.15c.48.28,1,.6,1.45.93a27.82,27.82,0,0,1,2.76,2.09c.4.34.82.69,1.2,1.06.8.73,1.57,1.52,2.33,2.34.35.37.69.77,1,1.17.7.82,1.36,1.66,2,2.52.29.42.59.83.87,1.26.61.87,1.18,1.77,1.72,2.7.26.44.52.88.76,1.32.52.94,1,1.89,1.45,2.85.22.47.42.93.61,1.39.43,1,.82,2,1.16,3,.18.5.33,1,.48,1.49a32.17,32.17,0,0,1,.82,3.21c.12.52.22,1.06.3,1.58a29.86,29.86,0,0,1,.37,3.47C542.65,317.58,542.66,318.05,542.66,318.5Z" transform="translate(-251.81 -128.6)"/><path class="cls-34" d="M519.85,283l-16.1,9.3-1.31.75-.4-1.52,2.13-1.24,13.73-7.92A16.3,16.3,0,0,1,519.85,283Z" transform="translate(-251.81 -128.6)"/><path class="cls-34" d="M524.76,285.64,505.24,296.9l-.4-1.52,18.47-10.67C523.79,285,524.27,285.31,524.76,285.64Z" transform="translate(-251.81 -128.6)"/><path class="cls-34" d="M528.72,288.79,508,300.73l-.38-1.53,19.87-11.47C527.92,288.07,528.34,288.42,528.72,288.79Z" transform="translate(-251.81 -128.6)"/><path class="cls-34" d="M532.07,292.3l-21.23,12.25-.4-1.53,20.61-11.89C531.4,291.5,531.74,291.9,532.07,292.3Z" transform="translate(-251.81 -128.6)"/><path class="cls-34" d="M535,296.08l-21.31,12.3-.39-1.53,20.83-12C534.37,295.24,534.67,295.65,535,296.08Z" transform="translate(-251.81 -128.6)"/><path class="cls-34" d="M537.43,300.1l-21,12.11-.4-1.53,20.62-11.9C536.93,299.22,537.19,299.66,537.43,300.1Z" transform="translate(-251.81 -128.6)"/><path class="cls-34" d="M539.49,304.34,519.25,316l-.4-1.53,20-11.56C539.1,303.42,539.3,303.88,539.49,304.34Z" transform="translate(-251.81 -128.6)"/><path class="cls-34" d="M541.13,308.85l-19.09,11-.38-1.53,19-11C540.83,307.86,541,308.35,541.13,308.85Z" transform="translate(-251.81 -128.6)"/><path class="cls-34" d="M542.25,313.64l-17.4,10.06-.4-1.53L542,312.06C542.07,312.58,542.17,313.12,542.25,313.64Z" transform="translate(-251.81 -128.6)"/><path class="cls-34" d="M542.66,318.5c0,.11,0,.24,0,.35l-15,8.66-.4-1.53,15.37-8.87C542.65,317.58,542.66,318.05,542.66,318.5Z" transform="translate(-251.81 -128.6)"/><path class="cls-34" d="M542.28,322.76a15.64,15.64,0,0,1-.54,2.07l-11.3,6.51-.38-1.53Z" transform="translate(-251.81 -128.6)"/><ellipse class="cls-35" cx="517.5" cy="310.4" rx="16" ry="27.71" transform="translate(-337.68 171.74) rotate(-30)"/><path class="cls-33" d="M521.08,294.79H519a27.51,27.51,0,0,1,2.16,2l1.22-.71C522,295.66,521.53,295.21,521.08,294.79Zm-17.34-2.47s0,.09,0,.13l.43.12a6.58,6.58,0,0,1,.54-.8Zm17.34,2.47H519a27.51,27.51,0,0,1,2.16,2l1.22-.71C522,295.66,521.53,295.21,521.08,294.79Zm-17.36-2.34.43.12a6.58,6.58,0,0,1,.54-.8l-.95.55S503.73,292.41,503.72,292.45Zm29.74,26.27c-.06-.54-.14-1.08-.23-1.62a33.18,33.18,0,0,0-.75-3.26q-.21-.75-.45-1.5c-.33-1-.71-2-1.13-3-.19-.47-.4-.95-.61-1.41-.44-1-.92-1.93-1.43-2.86-.25-.45-.5-.89-.76-1.32-.54-.92-1.12-1.82-1.73-2.69-.28-.42-.58-.83-.89-1.24-.64-.88-1.32-1.72-2-2.52-.35-.4-.7-.78-1.05-1.15s-.88-.91-1.33-1.33-.71-.66-1.07-1-.82-.71-1.24-1a25.25,25.25,0,0,0-2.93-2l-.06,0c-.52-.3-1-.57-1.54-.8a14.17,14.17,0,0,0-4.14-1.3,7.84,7.84,0,0,0-1.35-.11,7.57,7.57,0,0,0-1.91.23,6,6,0,0,0-2.64,1.45l-.17.17h0a7.15,7.15,0,0,0-1.24,1.74c-.14.26-.26.54-.38.81h0a16.83,16.83,0,0,0-1,6.13c0,10.71,7.5,24.16,16.65,30.18.4.28.81.53,1.22.77a14.56,14.56,0,0,0,7,2.22,7.44,7.44,0,0,0,2-.26,5.77,5.77,0,0,0,2.07-1,4.81,4.81,0,0,0,.81-.75,7.43,7.43,0,0,0,1.14-1.68h0a13.57,13.57,0,0,0,1.22-4.39,18.26,18.26,0,0,0,.13-1.83c0-.21,0-.41,0-.59A23.43,23.43,0,0,0,533.46,318.72ZM532,325a7.81,7.81,0,0,1-2.6,4.91,5.14,5.14,0,0,1-3.13,1,8.64,8.64,0,0,1-1.4-.12h0a14.14,14.14,0,0,1-4.21-1.53h0c-.23-.12-.47-.24-.7-.38-9.32-5.38-17.19-19-17.19-29.76a15.56,15.56,0,0,1,.84-5.28,7.83,7.83,0,0,1,.59-1.24,6.58,6.58,0,0,1,.54-.8h0a4.86,4.86,0,0,1,3.07-1.77h0a7.25,7.25,0,0,1,1-.07,10.92,10.92,0,0,1,4,.88,18,18,0,0,1,1.68.79c.22.11.43.23.65.36a23.36,23.36,0,0,1,2.38,1.58c.43.32.86.66,1.28,1a1.5,1.5,0,0,1,.27.24h0a27.51,27.51,0,0,1,2.16,2c.37.37.72.75,1.06,1.14.71.79,1.39,1.63,2,2.5.3.4.6.82.89,1.24.61.87,1.19,1.77,1.73,2.69.26.43.52.87.76,1.32.51.94,1,1.9,1.42,2.87.22.46.42.93.61,1.4.42,1,.79,2,1.1,3.05h0c.17.51.31,1,.45,1.5a30.44,30.44,0,0,1,.69,3.28c.09.55.16,1.1.21,1.64.07.76.11,1.51.11,2.24,0,.4,0,.88,0,1.41A17.15,17.15,0,0,1,532,325Zm-28.24-32.69s0,.09,0,.13l.43.12a6.58,6.58,0,0,1,.54-.8Zm17.34,2.47H519a27.51,27.51,0,0,1,2.16,2l1.22-.71C522,295.66,521.53,295.21,521.08,294.79Z" transform="translate(-251.81 -128.6)"/><path class="cls-33" d="M523,313.89a9.64,9.64,0,0,0-.71-1.35,12.62,12.62,0,0,0-2.08-2.48c-.4-.37-.81-.73-1.23-1.05s-.62-.48-.93-.7a9,9,0,0,1-1.76-1.44,1.89,1.89,0,0,1-.5-1.26.73.73,0,0,1,0-.22c.07-.27.29-.37.59-.34a3.14,3.14,0,0,1,1.23.46l.48.3a9.06,9.06,0,0,1,2.46,2.28c.09.11.17.22.25.34l1.51-1.36,0,0h0l.37-.33a16.43,16.43,0,0,0-2-2.43,14.79,14.79,0,0,0-1.19-1.06l-.37-.29v-2l-1-.59-1.53-.88-.72-.42v2.05a6.08,6.08,0,0,0-1.5-.35h0a2,2,0,0,0-2.28,1.32,3.84,3.84,0,0,0-.2,1.31c0,.19,0,.37,0,.55a7.72,7.72,0,0,0,1.7,4.38h0l0,.05a13.8,13.8,0,0,0,2.39,2.31c.43.34.89.67,1.35,1l.05,0a5.14,5.14,0,0,1,2.2,2.35,1,1,0,0,1,.08.4.6.6,0,0,1-.72.68,3.26,3.26,0,0,1-1.42-.52,10.86,10.86,0,0,1-4-4.08l-2.12,1.58a14.55,14.55,0,0,0,4.42,5.23v2.12l3.28,1.89v-2.18a4.67,4.67,0,0,0,2.79.33,2.25,2.25,0,0,0,1.56-2.23h0a4.63,4.63,0,0,0,0-.54A7.27,7.27,0,0,0,523,313.89Z" transform="translate(-251.81 -128.6)"/><path class="cls-36" d="M556,349.82V274.2c0,5.27-3.49,10.54-10.45,14.56-13.93,8-36.52,8-50.45,0-7-4-10.45-9.29-10.45-14.56v75.62h0c0,5.27,3.49,10.54,10.45,14.56,13.93,8.05,36.52,8.05,50.45,0C552.48,360.36,556,355.09,556,349.82Z" transform="translate(-251.81 -128.6)"/><path class="cls-37" d="M556,349.82V274.2c0,5.27-3.49,10.54-10.45,14.56-13.93,8-36.52,8-50.45,0-7-4-10.45-9.29-10.45-14.56v75.62h0c0,5.27,3.49,10.54,10.45,14.56,13.93,8.05,36.52,8.05,50.45,0C552.48,360.36,556,355.09,556,349.82Z" transform="translate(-251.81 -128.6)"/><ellipse class="cls-38" cx="268.47" cy="145.6" rx="35.67" ry="20.59"/><path class="cls-30" d="M490,317.21h0a4.86,4.86,0,0,1-2.44-4.21V291.15a.94.94,0,0,1,1.41-.81h0a5,5,0,0,1,2.49,4.32v21.7A1,1,0,0,1,490,317.21Z" transform="translate(-251.81 -128.6)"/><path class="cls-30" d="M490,332h0a4.87,4.87,0,0,1-2.44-4.22V323.1a.94.94,0,0,1,1.41-.82h0a5,5,0,0,1,2.49,4.32v4.52A1,1,0,0,1,490,332Z" transform="translate(-251.81 -128.6)"/><path class="cls-10" d="M358.33,286V254.09H287V286h0c0,5.27,3.49,10.55,10.45,14.57,13.93,8,36.52,8,50.45,0C354.84,296.55,358.33,291.27,358.33,286Z" transform="translate(-251.81 -128.6)"/><path class="cls-39" d="M358.33,286V254.09H287V286h0c0,5.27,3.49,10.55,10.45,14.57,13.93,8,36.52,8,50.45,0C354.84,296.55,358.33,291.27,358.33,286Z" transform="translate(-251.81 -128.6)"/><ellipse class="cls-12" cx="70.84" cy="125.49" rx="35.67" ry="20.59"/><ellipse class="cls-40" cx="70.84" cy="121.49" rx="35.67" ry="20.59"/><circle class="cls-41" cx="94.07" cy="64.11" r="2.38"/><circle class="cls-41" cx="91.69" cy="115.28" r="2.38"/><path class="cls-41" d="M305.1,225.6a2.38,2.38,0,1,1-2.38-2.38A2.37,2.37,0,0,1,305.1,225.6Z" transform="translate(-251.81 -128.6)"/><path class="cls-41" d="M342.63,182.65a1.5,1.5,0,1,1-1.5-1.5A1.5,1.5,0,0,1,342.63,182.65Z" transform="translate(-251.81 -128.6)"/><path class="cls-41" d="M335.94,250.09a1.5,1.5,0,1,1-1.5-1.5A1.5,1.5,0,0,1,335.94,250.09Z" transform="translate(-251.81 -128.6)"/><path class="cls-41" d="M304,180.5a1.5,1.5,0,1,1-1.5-1.5A1.5,1.5,0,0,1,304,180.5Z" transform="translate(-251.81 -128.6)"/><path class="cls-41" d="M353.76,224.53a1.5,1.5,0,1,1-1.5-1.5A1.5,1.5,0,0,1,353.76,224.53Z" transform="translate(-251.81 -128.6)"/><path class="cls-41" d="M300.29,246.26a1.5,1.5,0,1,1-1.5-1.5A1.5,1.5,0,0,1,300.29,246.26Z" transform="translate(-251.81 -128.6)"/><path class="cls-41" d="M345,218.77c0,.11,0,.24,0,.35a22.58,22.58,0,0,1-.37,3.91,15.64,15.64,0,0,1-.54,2.07,11.21,11.21,0,0,1-4.49,6.13h0l-.18.11c-.11.05-.22.12-.34.19l-5.51,3.2-1.24-2.14a19.17,19.17,0,0,1-6.93-2.52c-10.83-6.24-19.59-21.45-19.59-33.94a21.94,21.94,0,0,1,.28-3.55c.11-.71.26-1.38.42-2s.32-1,.5-1.5l-1.3-2.23,5.57-3.21.56-.32.31-.17v0a11.58,11.58,0,0,1,8.07-.51,17.87,17.87,0,0,1,2,.64,22.25,22.25,0,0,1,3.21,1.54l.25.15c.48.28,1,.59,1.44.92a26.92,26.92,0,0,1,2.77,2.1c.4.34.82.69,1.2,1.06.8.73,1.57,1.51,2.33,2.34.34.37.69.77,1,1.17.7.81,1.36,1.66,2,2.52.29.42.59.83.87,1.26.6.86,1.18,1.77,1.72,2.7.26.44.52.88.76,1.32q.78,1.41,1.44,2.85c.22.47.43.92.62,1.39.43,1,.82,2,1.16,3,.18.49.33,1,.48,1.49a32.17,32.17,0,0,1,.82,3.21c.12.52.22,1.06.3,1.58a29.86,29.86,0,0,1,.37,3.47C345,217.85,345,218.32,345,218.77Z" transform="translate(-251.81 -128.6)"/><path class="cls-42" d="M345,218.77c0,.11,0,.24,0,.35a22.58,22.58,0,0,1-.37,3.91,15.64,15.64,0,0,1-.54,2.07,11.21,11.21,0,0,1-4.49,6.13h0l-.18.11c-.11.05-.22.12-.34.19l-5.51,3.2-1.24-2.14a19.17,19.17,0,0,1-6.93-2.52c-10.83-6.24-19.59-21.45-19.59-33.94a21.94,21.94,0,0,1,.28-3.55c.11-.71.26-1.38.42-2s.32-1,.5-1.5l-1.3-2.23,5.57-3.21.56-.32.31-.17v0a11.58,11.58,0,0,1,8.07-.51,17.87,17.87,0,0,1,2,.64,22.25,22.25,0,0,1,3.21,1.54l.25.15c.48.28,1,.59,1.44.92a26.92,26.92,0,0,1,2.77,2.1c.4.34.82.69,1.2,1.06.8.73,1.57,1.51,2.33,2.34.34.37.69.77,1,1.17.7.81,1.36,1.66,2,2.52.29.42.59.83.87,1.26.6.86,1.18,1.77,1.72,2.7.26.44.52.88.76,1.32q.78,1.41,1.44,2.85c.22.47.43.92.62,1.39.43,1,.82,2,1.16,3,.18.49.33,1,.48,1.49a32.17,32.17,0,0,1,.82,3.21c.12.52.22,1.06.3,1.58a29.86,29.86,0,0,1,.37,3.47C345,217.85,345,218.32,345,218.77Z" transform="translate(-251.81 -128.6)"/><ellipse class="cls-43" cx="319.87" cy="210.67" rx="16" ry="27.71" transform="translate(-314.29 59.56) rotate(-30)"/><ellipse class="cls-44" cx="319.87" cy="210.67" rx="12.62" ry="21.85" transform="translate(-314.29 59.56) rotate(-30)"/><ellipse class="cls-44" cx="319.87" cy="210.67" rx="8.8" ry="15.24" transform="translate(-314.29 59.56) rotate(-30)"/><path class="cls-44" d="M326.25,214.35c0,4.06-2.86,5.71-6.38,3.68A14.09,14.09,0,0,1,313.5,207c0-4.06,2.85-5.71,6.37-3.68A14.12,14.12,0,0,1,326.25,214.35Z" transform="translate(-251.81 -128.6)"/><path class="cls-12" d="M322.38,212.11c0,1.6-1.12,2.25-2.51,1.45a5.55,5.55,0,0,1-2.51-4.34c0-1.6,1.13-2.25,2.51-1.45A5.52,5.52,0,0,1,322.38,212.11Z" transform="translate(-251.81 -128.6)"/><path class="cls-45" d="M358.33,250.09V174.47c0,5.27-3.49,10.54-10.45,14.56-13.93,8-36.52,8-50.45,0-7-4-10.45-9.29-10.45-14.56v75.62h0c0,5.27,3.49,10.54,10.45,14.56,13.93,8,36.52,8,50.45,0C354.84,260.63,358.33,255.36,358.33,250.09Z" transform="translate(-251.81 -128.6)"/><path class="cls-46" d="M358.33,250.09V174.47c0,5.27-3.49,10.54-10.45,14.56-13.93,8-36.52,8-50.45,0-7-4-10.45-9.29-10.45-14.56v75.62h0c0,5.27,3.49,10.54,10.45,14.56,13.93,8,36.52,8,50.45,0C354.84,260.63,358.33,255.36,358.33,250.09Z" transform="translate(-251.81 -128.6)"/><ellipse class="cls-47" cx="70.84" cy="45.87" rx="35.67" ry="20.59"/><path class="cls-30" d="M292.32,217.48h0a4.88,4.88,0,0,1-2.43-4.21V191.42a.94.94,0,0,1,1.41-.81h0a5,5,0,0,1,2.49,4.32v21.7A1,1,0,0,1,292.32,217.48Z" transform="translate(-251.81 -128.6)"/><path class="cls-30" d="M292.32,232.23h0a4.86,4.86,0,0,1-2.43-4.21v-4.66a.94.94,0,0,1,1.41-.81h0a5,5,0,0,1,2.49,4.32v4.52A1,1,0,0,1,292.32,232.23Z" transform="translate(-251.81 -128.6)"/><path class="cls-48" d="M431.47,340.37s-5.89,6.27-6.27,12.5l1.14,2.45,2.37-1.73s1.69-8.19,4.75-10.63Z" transform="translate(-251.81 -128.6)"/><path class="cls-49" d="M445.28,413.74s.41,3.88-1.48,3.68c-2.21-.24-9.05-4.84-7.53-6.29s7.23,1.17,7.23,1.17Z" transform="translate(-251.81 -128.6)"/><path class="cls-49" d="M433.13,419.48s.4,3.87-1.49,3.67c-2.21-.23-9.05-4.84-7.53-6.29s7.23,1.18,7.23,1.18Z" transform="translate(-251.81 -128.6)"/><rect class="cls-50" x="183.05" y="194.28" width="4.06" height="5.73"/><path class="cls-48" d="M430.54,353.79s-6.53,14.9-1.63,66.06a.84.84,0,0,0,.4.64c.86.49,3,1.37,4.15-1.52a.7.7,0,0,0,.05-.25l4.26-53.58c0-.86.48-.9.57,0l2.61,49a.92.92,0,0,0,.6.82c1.14.43,3.65.93,4.12-2.67,0,0,4.43-53-.75-60.19Z" transform="translate(-251.81 -128.6)"/><path class="cls-49" d="M444.92,350.41a2.59,2.59,0,0,1-.43.61c-1.49,1.52-5.49,4.27-13.48,1.41a1.4,1.4,0,0,1-.47-.28v1.64a1.4,1.4,0,0,0,.47.28c8,2.86,12,.11,13.48-1.41a2.59,2.59,0,0,0,.43-.61Z" transform="translate(-251.81 -128.6)"/><path class="cls-12" d="M461.15,301.81s0-3.47.48-3.55.32,1.1.32,1.1.39-2.58.94-2.43c.21.05-.05,1.63-.05,1.63s.24-.91,1.68,0c.45.28.35,1.13-1.37,3.82Z" transform="translate(-251.81 -128.6)"/><path class="cls-51" d="M444.07,325.07S456.21,324,461,301.53a2.76,2.76,0,0,1,2.33.82s-.71,27-17.53,32.23Z" transform="translate(-251.81 -128.6)"/><path class="cls-52" d="M434.86,326.67l4.06-.93,6.4-.83c1.57-.21,2.7,2.06,2.81,4.49.21,4.62-2.88,20.32-2.88,20.32a2.76,2.76,0,0,1-.75,1.7C443,352.93,439,355.7,431,352.84a1.47,1.47,0,0,1-.95-1.16l-3-18.57a2.57,2.57,0,0,1,1.06-2.5Z" transform="translate(-251.81 -128.6)"/><path class="cls-12" d="M429.81,315.67s.49,5.55,2.78,8.39,6.74-1.85,7.4-3.22,1.73-9.94-5.16-9.94C430.37,310.9,429.58,313.68,429.81,315.67Z" transform="translate(-251.81 -128.6)"/><path class="cls-48" d="M436.44,319.12a9.38,9.38,0,0,1-3.17-4.43s-.51-.3-3.33,2.06c0,0-3.18,0-1.7-3.36s7.59-7.59,10.53-4.24c0,0,5.6-.93,4.52,6.32-1.43,9.56-5.91,8-7,5.8S436.44,319.12,436.44,319.12Z" transform="translate(-251.81 -128.6)"/><path class="cls-12" d="M435,318s.93-1.83,1.69-.74-.16,3.29-1.83,3.58Z" transform="translate(-251.81 -128.6)"/><polygon class="cls-48" points="157.86 196.42 166.48 205 175.13 199.86 166.48 191.01 157.86 196.42"/><polyline class="cls-53" points="165.75 201.01 165.75 199.08 167.57 199.08 167.57 195.03"/><polyline class="cls-53" points="165.85 196.15 167.47 194.54 169.28 196.36"/><path class="cls-12" d="M413.41,328.73a12,12,0,0,1,1.22-1.33.21.21,0,0,1,.35.21l-.36,1.27s1.84-.51.81,2.51l-1.78.49Z" transform="translate(-251.81 -128.6)"/><path class="cls-51" d="M415.59,331.35s9.44,17,3.82,18-5.88-17.48-5.88-17.48A2.07,2.07,0,0,1,415.59,331.35Z" transform="translate(-251.81 -128.6)"/><path class="cls-51" d="M428.14,330.61s-2.54,1.27-6.06,6.29c-4.79,6.82-7,10.89-2.55,12.39,1.13.38,8.9-7.77,8.9-7.77S431.59,334.76,428.14,330.61Z" transform="translate(-251.81 -128.6)"/><path class="cls-51" d="M434,327.15l.82-1.41a8.69,8.69,0,0,1,4.06-.91l1,.83S439.68,326.63,434,327.15Z" transform="translate(-251.81 -128.6)"/><polygon class="cls-10" points="99.36 181.77 68.67 251.01 65.88 249.35 65.88 209.11 99.36 181.77"/><polygon class="cls-10" points="102.15 183.43 102.15 231.67 68.67 251.01 68.67 210.77 102.15 183.43"/><polygon class="cls-54" points="102.15 183.43 102.15 231.67 68.67 251.01 68.67 210.77 102.15 183.43"/><polygon class="cls-10" points="153.28 212.85 122.59 282.09 119.8 280.43 119.8 240.2 153.28 212.85"/><polygon class="cls-10" points="156.07 214.51 156.07 262.76 122.59 282.09 122.59 241.85 156.07 214.51"/><polygon class="cls-55" points="156.07 214.51 156.07 262.76 122.59 282.09 122.59 241.85 156.07 214.51"/><polygon class="cls-10" points="122.59 244.55 65.88 211.81 156.07 214.51 156.07 217.21 122.59 244.55"/><polygon class="cls-56" points="122.59 244.55 65.88 211.81 156.07 214.51 156.07 217.21 122.59 244.55"/><polygon class="cls-12" points="122.59 241.85 65.88 209.11 99.36 181.77 156.07 214.51 122.59 241.85"/><polygon class="cls-48" points="121.82 237.35 72.47 208.85 100.13 186.26 149.47 214.77 121.82 237.35"/><path class="cls-57" d="M361.16,341l-18.81-10.87a.71.71,0,0,1-.1-1.17l9.92-8.1a1.65,1.65,0,0,1,1.86-.15l18.55,10.72a.92.92,0,0,1,.12,1.51L363,340.84A1.65,1.65,0,0,1,361.16,341Z" transform="translate(-251.81 -128.6)"/><path class="cls-58" d="M352.72,347.73l-18.81-10.87a.71.71,0,0,1-.09-1.17l4.9-3.92a1.66,1.66,0,0,1,1.87-.15l18.54,10.72a.92.92,0,0,1,.13,1.51l-4.68,3.73A1.65,1.65,0,0,1,352.72,347.73Z" transform="translate(-251.81 -128.6)"/><path class="cls-59" d="M362.23,353.42l-6.13-3.51a.71.71,0,0,1-.09-1.17l4.9-3.92a1.65,1.65,0,0,1,1.86-.15l5.87,3.36a.93.93,0,0,1,.13,1.52l-4.68,3.72A1.65,1.65,0,0,1,362.23,353.42Z" transform="translate(-251.81 -128.6)"/><path class="cls-60" d="M371.83,358.85,365.29,355a.72.72,0,0,1-.09-1.18l4.9-3.91a1.65,1.65,0,0,1,1.86-.15l6.28,3.72a.93.93,0,0,1,.13,1.52l-4.68,3.72A1.65,1.65,0,0,1,371.83,358.85Z" transform="translate(-251.81 -128.6)"/><polygon class="cls-10" points="122.59 244.55 122.59 241.85 65.88 209.11 65.88 211.81 122.59 244.55"/><path class="cls-61" d="M346,329.54c0-.1,9.13-.73,9.13-.73l1.76,3.17h10.93l-2.37-1.14" transform="translate(-251.81 -128.6)"/><line class="cls-61" x1="116.05" y1="203.38" x2="116.05" y2="205.26"/><ellipse class="cls-43" cx="126.2" cy="207.14" rx="1.14" ry="0.66"/><ellipse class="cls-62" cx="129.5" cy="209.02" rx="1.14" ry="0.66"/><path class="cls-43" d="M385.41,340a1.76,1.76,0,0,1-1.61,0,.49.49,0,0,1,0-.93,1.76,1.76,0,0,1,1.61,0C385.86,339.29,385.86,339.7,385.41,340Z" transform="translate(-251.81 -128.6)"/><path class="cls-43" d="M388.71,341.84a1.76,1.76,0,0,1-1.61,0c-.45-.26-.45-.67,0-.93a1.76,1.76,0,0,1,1.61,0A.49.49,0,0,1,388.71,341.84Z" transform="translate(-251.81 -128.6)"/><path class="cls-43" d="M392,343.72a1.76,1.76,0,0,1-1.61,0,.49.49,0,0,1,0-.93,1.76,1.76,0,0,1,1.61,0C392.45,343.05,392.45,343.46,392,343.72Z" transform="translate(-251.81 -128.6)"/><path class="cls-43" d="M376.11,338.26a1.76,1.76,0,0,1-1.61,0,.49.49,0,0,1,0-.93,1.76,1.76,0,0,1,1.61,0C376.56,337.59,376.56,338,376.11,338.26Z" transform="translate(-251.81 -128.6)"/><path class="cls-43" d="M379.41,340.14a1.76,1.76,0,0,1-1.61,0c-.45-.26-.45-.67,0-.93a1.76,1.76,0,0,1,1.61,0A.49.49,0,0,1,379.41,340.14Z" transform="translate(-251.81 -128.6)"/><path class="cls-43" d="M382.7,342a1.76,1.76,0,0,1-1.61,0,.49.49,0,0,1,0-.93,1.76,1.76,0,0,1,1.61,0C383.15,341.35,383.15,341.76,382.7,342Z" transform="translate(-251.81 -128.6)"/><path class="cls-62" d="M386,343.9a1.76,1.76,0,0,1-1.61,0c-.45-.26-.45-.67,0-.93a1.76,1.76,0,0,1,1.61,0A.49.49,0,0,1,386,343.9Z" transform="translate(-251.81 -128.6)"/><path class="cls-62" d="M389.29,345.78a1.76,1.76,0,0,1-1.61,0,.49.49,0,0,1,0-.93,1.76,1.76,0,0,1,1.61,0C389.74,345.11,389.74,345.52,389.29,345.78Z" transform="translate(-251.81 -128.6)"/><path class="cls-62" d="M373.4,340.32a1.76,1.76,0,0,1-1.61,0c-.45-.26-.45-.67,0-.93a1.76,1.76,0,0,1,1.61,0C373.85,339.65,373.85,340.06,373.4,340.32Z" transform="translate(-251.81 -128.6)"/><path class="cls-43" d="M376.7,342.2a1.78,1.78,0,0,1-1.62,0,.49.49,0,0,1,0-.93,1.78,1.78,0,0,1,1.62,0A.49.49,0,0,1,376.7,342.2Z" transform="translate(-251.81 -128.6)"/><ellipse class="cls-62" cx="127.37" cy="215.02" rx="1.14" ry="0.66"/><path class="cls-43" d="M383.29,346a1.76,1.76,0,0,1-1.61,0c-.45-.26-.45-.67,0-.93a1.76,1.76,0,0,1,1.61,0A.49.49,0,0,1,383.29,346Z" transform="translate(-251.81 -128.6)"/><path class="cls-43" d="M386.58,347.84a1.76,1.76,0,0,1-1.61,0,.49.49,0,0,1,0-.93,1.76,1.76,0,0,1,1.61,0C387,347.17,387,347.58,386.58,347.84Z" transform="translate(-251.81 -128.6)"/><path class="cls-43" d="M370.69,342.38a1.76,1.76,0,0,1-1.61,0c-.45-.26-.45-.67,0-.93a1.76,1.76,0,0,1,1.61,0C371.14,341.71,371.14,342.12,370.69,342.38Z" transform="translate(-251.81 -128.6)"/><path class="cls-43" d="M374,344.26a1.78,1.78,0,0,1-1.62,0,.49.49,0,0,1,0-.93,1.78,1.78,0,0,1,1.62,0A.49.49,0,0,1,374,344.26Z" transform="translate(-251.81 -128.6)"/><path class="cls-43" d="M377.28,346.14a1.76,1.76,0,0,1-1.61,0c-.45-.26-.45-.67,0-.93a1.76,1.76,0,0,1,1.61,0C377.73,345.47,377.73,345.88,377.28,346.14Z" transform="translate(-251.81 -128.6)"/><path class="cls-43" d="M380.58,348a1.78,1.78,0,0,1-1.62,0,.49.49,0,0,1,0-.93,1.78,1.78,0,0,1,1.62,0A.49.49,0,0,1,380.58,348Z" transform="translate(-251.81 -128.6)"/><path class="cls-62" d="M383.87,349.9a1.76,1.76,0,0,1-1.61,0c-.45-.26-.45-.67,0-.93a1.76,1.76,0,0,1,1.61,0C384.32,349.23,384.32,349.64,383.87,349.9Z" transform="translate(-251.81 -128.6)"/><ellipse class="cls-62" cx="115.36" cy="215.38" rx="1.14" ry="0.66"/><ellipse class="cls-43" cx="118.66" cy="217.26" rx="1.14" ry="0.66"/><path class="cls-62" d="M374.57,348.2a1.76,1.76,0,0,1-1.61,0c-.45-.26-.45-.67,0-.93a1.76,1.76,0,0,1,1.61,0A.49.49,0,0,1,374.57,348.2Z" transform="translate(-251.81 -128.6)"/><ellipse class="cls-43" cx="125.25" cy="221.02" rx="1.14" ry="0.66"/><path class="cls-62" d="M381.16,352a1.76,1.76,0,0,1-1.61,0c-.45-.26-.45-.67,0-.93a1.76,1.76,0,0,1,1.61,0C381.61,351.29,381.61,351.7,381.16,352Z" transform="translate(-251.81 -128.6)"/><line class="cls-63" x1="87.64" y1="205.03" x2="104.33" y2="214.79"/><line class="cls-63" x1="86.42" y1="206" x2="103.11" y2="215.76"/><line class="cls-63" x1="85.19" y1="206.97" x2="101.89" y2="216.74"/><path class="cls-48" d="M330.87,334.61s6.22,6.61,6.62,13.19l-1.21,2.58-2.5-1.82s-1.78-8.64-5-11.22Z" transform="translate(-251.81 -128.6)"/><path class="cls-49" d="M316.29,412.05s-.43,4.09,1.57,3.88c2.33-.25,9.55-5.11,7.94-6.64s-7.63,1.24-7.63,1.24Z" transform="translate(-251.81 -128.6)"/><path class="cls-49" d="M329.12,418.1s-.43,4.09,1.57,3.88c2.33-.25,9.55-5.11,7.95-6.64s-7.64,1.24-7.64,1.24Z" transform="translate(-251.81 -128.6)"/><rect class="cls-12" x="323.01" y="316.15" width="4.28" height="6.05" transform="translate(398.49 509.75) rotate(180)"/><path class="cls-48" d="M331.85,348.77s6.9,15.73,1.72,69.73a.86.86,0,0,1-.43.67c-.9.52-3.19,1.44-4.37-1.61a1.14,1.14,0,0,1-.06-.25l-4.49-56.56c0-.91-.51-.95-.6,0l-2.76,51.71a1,1,0,0,1-.63.86c-1.21.46-3.85,1-4.34-2.82,0,0-4.69-55.93.78-63.52Z" transform="translate(-251.81 -128.6)"/><path class="cls-49" d="M316.67,345.21a2.6,2.6,0,0,0,.46.64c1.57,1.61,5.8,4.5,14.22,1.49a1.48,1.48,0,0,0,.5-.3v1.73a1.48,1.48,0,0,1-.5.3c-8.42,3-12.65.12-14.22-1.49a2.6,2.6,0,0,1-.46-.64Z" transform="translate(-251.81 -128.6)"/><path class="cls-52" d="M327.29,320.15l-4.28-1-6.76-.88c-1.66-.22-2.85,2.18-3,4.74-.22,4.87,3.05,21.45,3.05,21.45a2.8,2.8,0,0,0,.79,1.79c1.55,1.6,5.78,4.52,14.23,1.5a1.56,1.56,0,0,0,1-1.22l3.14-19.61a2.69,2.69,0,0,0-1.12-2.64Z" transform="translate(-251.81 -128.6)"/><path class="cls-12" d="M332.62,308.54s-.52,5.85-2.94,8.85-7.1-1.95-7.8-3.39-1.83-10.5,5.44-10.5C332,303.5,332.86,306.43,332.62,308.54Z" transform="translate(-251.81 -128.6)"/><path class="cls-48" d="M325.62,312.18a9.9,9.9,0,0,0,3.35-4.67s.53-.32,3.51,2.17c0,0,3.35,0,1.8-3.54s-8-8-11.12-4.48c0,0-5.91-1-4.76,6.67,1.5,10.09,6.23,8.43,7.41,6.12S325.62,312.18,325.62,312.18Z" transform="translate(-251.81 -128.6)"/><path class="cls-12" d="M327.14,311s-1-1.93-1.78-.78.16,3.47,1.93,3.78Z" transform="translate(-251.81 -128.6)"/><path class="cls-12" d="M362.56,345.46a11.88,11.88,0,0,1,1.07,1.56.23.23,0,0,1-.3.32l-1.22-.67s.08,2-2.77.22l-.07-1.95Z" transform="translate(-251.81 -128.6)"/><path class="cls-51" d="M359.87,344.88s-17.83-10.13-19-4.21,18.39,6.38,18.39,6.38A2.2,2.2,0,0,0,359.87,344.88Z" transform="translate(-251.81 -128.6)"/><path class="cls-51" d="M334.38,324.3s2.68,1.34,6.4,6.65c5.06,7.19,7.38,11.49,2.69,13.07-1.19.41-9.39-8.2-9.39-8.2S330.74,328.69,334.38,324.3Z" transform="translate(-251.81 -128.6)"/><path class="cls-51" d="M328.16,320.66l-.87-1.49a9.13,9.13,0,0,0-4.28-1l-1,.87S322.2,320.1,328.16,320.66Z" transform="translate(-251.81 -128.6)"/><path class="cls-64" d="M521,212.15c3.53,9.57,16.66,21.85,27.45,17.25,5.33-2.27,8.24-9.75,4.67-14.32-2.54-3.25-7.1-4.06-10.38-6.55-2.94-2.23-4.66-5.65-6.88-8.59s-5.51-5.62-9.17-5.22c-7.67.86-7.69,11.45-5.89,16.87C520.87,211.77,520.93,212,521,212.15Z" transform="translate(-251.81 -128.6)"/></g></g></svg>